<?xml version="1.0" encoding="UTF-8" standalone="no"?>
<!-- Created with Inkscape (http://www.inkscape.org/) -->

<svg
   width="1080"
   height="1080"
   viewBox="0 0 285.74999 285.75"
   version="1.1"
   id="svg1"
   xmlns="http://www.w3.org/2000/svg"
   xmlns:svg="http://www.w3.org/2000/svg">
  <defs
     id="defs1" />
  <g
     id="layer1">
    <g
       id="text1"
       style="opacity:1">
      <path
         style="font-size:697.721px;font-family:'Bricolage Grotesque';-inkscape-font-specification:'Bricolage Grotesque';letter-spacing:0px;word-spacing:398.168px;baseline-shift:baseline;display:inline;overflow:visible;vector-effect:none;fill:#ffffff;fill-opacity:0;enable-background:accumulate;stop-color:#000000;stop-opacity:1"
         d="m 101.36074,256.60314 -52.32908,-36.97922 64.19033,-64.19033 v -1.39544 l -90.006007,-14.65214 19.536188,-61.399451 80.935639,41.863261 1.39544,-0.69772 -13.2567,-90.006011 h 62.79489 l -13.95442,90.006011 2.09316,0.69772 80.23792,-41.863261 19.53619,61.399451 -89.30829,13.95442 v 2.09316 l 63.49261,62.79489 -50.93363,38.37466 -41.86326,-81.63336 h -1.39544 z"
         id="path1" />
      <path
         style="font-size:697.721px;font-family:'Bricolage Grotesque';-inkscape-font-specification:'Bricolage Grotesque';letter-spacing:0px;word-spacing:398.168px;baseline-shift:baseline;display:inline;overflow:visible;vector-effect:none;fill:#ffffff;enable-background:accumulate;stop-color:#000000;stop-opacity:1"
         d="m 104.87891,23.146484 12.78906,86.833986 -78.476564,-40.591798 -23.800781,74.802738 86.507815,14.08203 -62.142581,62.14258 63.828121,45.10546 39.67969,-78.68554 40.43555,78.84961 62.17383,-46.8418 -61.80274,-61.12305 86.30274,-13.48633 -23.82227,-74.869136 -78.4375,40.925786 13.50977,-87.144536 z m 13.89453,12 h 48.8457 l -13.6582,88.095706 9.3164,3.10547 76.16797,-39.740238 15.25,47.929688 -87.46875,13.66797 v 9.73242 l 60.33789,59.67383 -39.69531,29.9082 -40.28125,-78.54883 h -8.75586 L 99.138672,247.68555 58.308594,218.83203 119.22266,157.91797 v -8.98242 L 31.041016,134.58203 46.3125,86.583984 l 77.33008,39.998046 8.00976,-4.00586 z"
         id="path2" />
    </g>
  </g>
</svg>
